# Blender 4.5.5 LTS
# www.blender.org
mtllib gantry_arch.mtl
o GantryArch
v -19.744490 -0.227577 -0.000000
v -14.534267 -0.227576 -0.000000
v -19.744492 20.613317 0.000000
v -14.534270 20.613317 0.000000
v -13.754361 20.703259 0.000000
v -13.754360 13.826083 0.000000
v 13.754339 20.703262 0.000000
v 13.754340 13.826086 0.000000
v 14.534282 -0.227576 -0.000000
v 19.744505 -0.227575 -0.000000
v 14.534279 20.613319 0.000000
v 19.744503 20.613319 0.000000
vn -0.0000 -0.0000 1.0000
vt 1.000000 0.000000
vt 1.000000 0.250000
vt 0.000000 0.250000
vt 0.000000 0.000000
vt 0.000000 1.000000
vt 0.000000 0.750000
vt 1.000000 0.750000
vt 1.000000 1.000000
s 0
usemtl Material.003
f 1/1/1 2/2/1 4/3/1 3/4/1
f 5/5/1 6/6/1 8/7/1 7/8/1
f 9/1/1 10/2/1 12/3/1 11/4/1
