# Blender 4.5.3 LTS
# www.blender.org
mtllib wheel.mtl
o Cylinder
v -0.100000 0.000000 -0.189952
v -0.090000 0.000000 -0.200000
v 0.100000 -0.000000 -0.189952
v 0.090000 -0.000000 -0.200000
v -0.100000 -0.037058 -0.186302
v -0.090000 -0.039018 -0.196157
v 0.100000 -0.037058 -0.186302
v 0.090000 -0.039018 -0.196157
v -0.100000 -0.072691 -0.175492
v -0.090000 -0.076537 -0.184776
v 0.100000 -0.072691 -0.175492
v 0.090000 -0.076537 -0.184776
v -0.100000 -0.105531 -0.157939
v -0.090000 -0.111114 -0.166294
v 0.100000 -0.105531 -0.157939
v 0.090000 -0.111114 -0.166294
v -0.100000 -0.134316 -0.134316
v -0.090000 -0.141421 -0.141421
v 0.100000 -0.134316 -0.134316
v 0.090000 -0.141421 -0.141421
v -0.100000 -0.157939 -0.105531
v -0.090000 -0.166294 -0.111114
v 0.100000 -0.157939 -0.105531
v 0.090000 -0.166294 -0.111114
v -0.100000 -0.175492 -0.072691
v -0.090000 -0.184776 -0.076537
v 0.100000 -0.175492 -0.072691
v 0.090000 -0.184776 -0.076537
v -0.100000 -0.186302 -0.037058
v -0.090000 -0.196157 -0.039018
v 0.100000 -0.186302 -0.037058
v 0.090000 -0.196157 -0.039018
v -0.100000 -0.189952 0.000000
v -0.090000 -0.200000 0.000000
v 0.100000 -0.189952 0.000000
v 0.090000 -0.200000 0.000000
v -0.100000 -0.186302 0.037058
v -0.090000 -0.196157 0.039018
v 0.100000 -0.186302 0.037058
v 0.090000 -0.196157 0.039018
v -0.100000 -0.175492 0.072691
v -0.090000 -0.184776 0.076537
v 0.100000 -0.175492 0.072691
v 0.090000 -0.184776 0.076537
v -0.100000 -0.157939 0.105531
v -0.090000 -0.166294 0.111114
v 0.100000 -0.157939 0.105531
v 0.090000 -0.166294 0.111114
v -0.100000 -0.134316 0.134316
v -0.090000 -0.141421 0.141421
v 0.100000 -0.134316 0.134316
v 0.090000 -0.141421 0.141421
v -0.100000 -0.105531 0.157939
v -0.090000 -0.111114 0.166294
v 0.100000 -0.105531 0.157939
v 0.090000 -0.111114 0.166294
v -0.100000 -0.072691 0.175492
v -0.090000 -0.076537 0.184776
v 0.100000 -0.072691 0.175492
v 0.090000 -0.076537 0.184776
v -0.100000 -0.037058 0.186302
v -0.090000 -0.039018 0.196157
v 0.100000 -0.037058 0.186302
v 0.090000 -0.039018 0.196157
v -0.100000 0.000000 0.189952
v -0.090000 0.000000 0.200000
v 0.100000 -0.000000 0.189952
v 0.090000 -0.000000 0.200000
v -0.100000 0.037058 0.186302
v -0.090000 0.039018 0.196157
v 0.100000 0.037058 0.186302
v 0.090000 0.039018 0.196157
v -0.100000 0.072691 0.175492
v -0.090000 0.076537 0.184776
v 0.100000 0.072691 0.175492
v 0.090000 0.076537 0.184776
v -0.100000 0.105531 0.157939
v -0.090000 0.111114 0.166294
v 0.100000 0.105531 0.157939
v 0.090000 0.111114 0.166294
v -0.100000 0.134316 0.134316
v -0.090000 0.141421 0.141421
v 0.100000 0.134316 0.134316
v 0.090000 0.141421 0.141421
v -0.100000 0.157939 0.105531
v -0.090000 0.166294 0.111114
v 0.100000 0.157939 0.105531
v 0.090000 0.166294 0.111114
v -0.100000 0.175492 0.072691
v -0.090000 0.184776 0.076537
v 0.100000 0.175492 0.072691
v 0.090000 0.184776 0.076537
v -0.100000 0.186302 0.037058
v -0.090000 0.196157 0.039018
v 0.100000 0.186302 0.037058
v 0.090000 0.196157 0.039018
v -0.100000 0.189952 0.000000
v -0.090000 0.200000 0.000000
v 0.100000 0.189952 0.000000
v 0.090000 0.200000 0.000000
v -0.100000 0.186302 -0.037058
v -0.090000 0.196157 -0.039018
v 0.100000 0.186302 -0.037058
v 0.090000 0.196157 -0.039018
v -0.100000 0.175492 -0.072691
v -0.090000 0.184776 -0.076537
v 0.100000 0.175492 -0.072691
v 0.090000 0.184776 -0.076537
v -0.100000 0.157939 -0.105531
v -0.090000 0.166294 -0.111114
v 0.100000 0.157939 -0.105531
v 0.090000 0.166294 -0.111114
v -0.100000 0.134316 -0.134316
v -0.090000 0.141421 -0.141421
v 0.100000 0.134316 -0.134316
v 0.090000 0.141421 -0.141421
v -0.100000 0.105531 -0.157939
v -0.090000 0.111114 -0.166294
v 0.100000 0.105531 -0.157939
v 0.090000 0.111114 -0.166294
v -0.100000 0.072691 -0.175492
v -0.090000 0.076537 -0.184776
v 0.100000 0.072691 -0.175492
v 0.090000 0.076537 -0.184776
v -0.100000 0.037058 -0.186302
v -0.090000 0.039018 -0.196157
v 0.100000 0.037058 -0.186302
v 0.090000 0.039018 -0.196157
v 0.100000 -0.000000 -0.132966
v 0.100000 -0.025940 -0.130411
v 0.100000 -0.050884 -0.122845
v 0.100000 -0.073872 -0.110557
v 0.100000 -0.094021 -0.094021
v 0.100000 -0.110557 -0.073872
v 0.100000 -0.122845 -0.050884
v 0.100000 -0.130411 -0.025940
v 0.100000 -0.132966 0.000000
v 0.100000 -0.130411 0.025940
v 0.100000 -0.122845 0.050884
v 0.100000 -0.110557 0.073872
v 0.100000 -0.094021 0.094021
v 0.100000 -0.073872 0.110557
v 0.100000 -0.050884 0.122845
v 0.100000 -0.025940 0.130411
v 0.100000 -0.000000 0.132966
v 0.100000 0.025940 0.130411
v 0.100000 0.050884 0.122845
v 0.100000 0.073872 0.110557
v 0.100000 0.094021 0.094021
v 0.100000 0.110557 0.073872
v 0.100000 0.122845 0.050884
v 0.100000 0.130411 0.025940
v 0.100000 0.132966 0.000000
v 0.100000 0.130411 -0.025940
v 0.100000 0.122845 -0.050884
v 0.100000 0.110557 -0.073872
v 0.100000 0.094021 -0.094021
v 0.100000 0.073872 -0.110557
v 0.100000 0.050884 -0.122845
v 0.100000 0.025940 -0.130411
v 0.100000 -0.000000 -0.106373
v 0.100000 -0.020752 -0.104329
v 0.100000 -0.040707 -0.098276
v 0.100000 -0.059098 -0.088446
v 0.100000 -0.075217 -0.075217
v 0.100000 -0.088446 -0.059098
v 0.100000 -0.098276 -0.040707
v 0.100000 -0.104329 -0.020752
v 0.100000 -0.106373 0.000000
v 0.100000 -0.104329 0.020752
v 0.100000 -0.098276 0.040707
v 0.100000 -0.088446 0.059098
v 0.100000 -0.075217 0.075217
v 0.100000 -0.059098 0.088446
v 0.100000 -0.040707 0.098276
v 0.100000 -0.020752 0.104329
v 0.100000 -0.000000 0.106373
v 0.100000 0.020752 0.104329
v 0.100000 0.040707 0.098276
v 0.100000 0.059098 0.088446
v 0.100000 0.075217 0.075217
v 0.100000 0.088446 0.059098
v 0.100000 0.098276 0.040707
v 0.100000 0.104329 0.020752
v 0.100000 0.106373 0.000000
v 0.100000 0.104329 -0.020752
v 0.100000 0.098276 -0.040707
v 0.100000 0.088446 -0.059098
v 0.100000 0.075217 -0.075217
v 0.100000 0.059098 -0.088446
v 0.100000 0.040707 -0.098276
v 0.100000 0.020752 -0.104329
v 0.114874 -0.000000 -0.072447
v 0.114874 -0.014134 -0.071054
v 0.114874 -0.027724 -0.066932
v 0.114874 -0.040249 -0.060237
v 0.114874 -0.051227 -0.051227
v 0.114874 -0.060237 -0.040249
v 0.114874 -0.066932 -0.027724
v 0.114874 -0.071055 -0.014134
v 0.114874 -0.072447 0.000000
v 0.114874 -0.071055 0.014134
v 0.114874 -0.066932 0.027724
v 0.114874 -0.060237 0.040249
v 0.114874 -0.051227 0.051227
v 0.114874 -0.040249 0.060237
v 0.114874 -0.027724 0.066932
v 0.114874 -0.014134 0.071054
v 0.114874 -0.000000 0.072447
v 0.114874 0.014134 0.071054
v 0.114874 0.027724 0.066932
v 0.114874 0.040249 0.060237
v 0.114874 0.051227 0.051227
v 0.114874 0.060237 0.040249
v 0.114874 0.066932 0.027724
v 0.114874 0.071055 0.014134
v 0.114874 0.072447 0.000000
v 0.114874 0.071055 -0.014134
v 0.114874 0.066932 -0.027724
v 0.114874 0.060237 -0.040249
v 0.114874 0.051227 -0.051227
v 0.114874 0.040249 -0.060237
v 0.114874 0.027724 -0.066932
v 0.114874 0.014134 -0.071054
vn -0.3756 -0.0000 -0.9268
vn -0.3756 -0.1808 -0.9090
vn -0.9158 -0.0783 -0.3938
vn -0.9158 -0.0000 -0.4016
vn 0.3756 -0.1808 -0.9090
vn 0.3756 -0.0000 -0.9268
vn 0.9158 -0.0000 -0.4016
vn 0.9158 -0.0783 -0.3938
vn -0.3756 -0.3547 -0.8562
vn -0.9158 -0.1537 -0.3710
vn 0.3756 -0.3547 -0.8562
vn 0.9158 -0.1537 -0.3710
vn -0.3756 -0.5149 -0.7706
vn -0.9158 -0.2231 -0.3339
vn 0.3756 -0.5149 -0.7706
vn 0.9158 -0.2231 -0.3339
vn -0.3756 -0.6553 -0.6553
vn -0.9158 -0.2839 -0.2839
vn 0.3756 -0.6553 -0.6553
vn 0.9158 -0.2839 -0.2839
vn -0.3756 -0.7706 -0.5149
vn -0.9158 -0.3339 -0.2231
vn 0.3756 -0.7706 -0.5149
vn 0.9158 -0.3339 -0.2231
vn -0.3756 -0.8562 -0.3547
vn -0.9158 -0.3710 -0.1537
vn 0.3756 -0.8562 -0.3547
vn 0.9158 -0.3710 -0.1537
vn -0.3756 -0.9090 -0.1808
vn -0.9158 -0.3938 -0.0783
vn 0.3756 -0.9090 -0.1808
vn 0.9158 -0.3938 -0.0783
vn -0.3756 -0.9268 -0.0000
vn -0.9158 -0.4016 -0.0000
vn 0.3756 -0.9268 -0.0000
vn 0.9158 -0.4016 -0.0000
vn -0.3756 -0.9090 0.1808
vn -0.9158 -0.3938 0.0783
vn 0.3756 -0.9090 0.1808
vn 0.9158 -0.3938 0.0783
vn -0.3756 -0.8562 0.3547
vn -0.9158 -0.3710 0.1537
vn 0.3756 -0.8562 0.3547
vn 0.9158 -0.3710 0.1537
vn -0.3756 -0.7706 0.5149
vn -0.9158 -0.3339 0.2231
vn 0.3756 -0.7706 0.5149
vn 0.9158 -0.3339 0.2231
vn -0.3756 -0.6553 0.6553
vn -0.9158 -0.2839 0.2839
vn 0.3756 -0.6553 0.6553
vn 0.9158 -0.2839 0.2839
vn -0.3756 -0.5149 0.7706
vn -0.9158 -0.2231 0.3339
vn 0.3756 -0.5149 0.7706
vn 0.9158 -0.2231 0.3339
vn -0.3756 -0.3547 0.8562
vn -0.9158 -0.1537 0.3710
vn 0.3756 -0.3547 0.8562
vn 0.9158 -0.1537 0.3710
vn -0.3756 -0.1808 0.9090
vn -0.9158 -0.0783 0.3938
vn 0.3756 -0.1808 0.9090
vn 0.9158 -0.0783 0.3938
vn -0.3756 -0.0000 0.9268
vn -0.9158 -0.0000 0.4016
vn 0.3756 -0.0000 0.9268
vn 0.9158 -0.0000 0.4016
vn -0.3756 0.1808 0.9090
vn -0.9158 0.0783 0.3938
vn 0.3756 0.1808 0.9090
vn 0.9158 0.0783 0.3938
vn -0.3756 0.3547 0.8562
vn -0.9158 0.1537 0.3710
vn 0.3756 0.3547 0.8562
vn 0.9158 0.1537 0.3710
vn -0.3756 0.5149 0.7706
vn -0.9158 0.2231 0.3339
vn 0.3756 0.5149 0.7706
vn 0.9158 0.2231 0.3339
vn -0.3756 0.6553 0.6553
vn -0.9158 0.2839 0.2839
vn 0.3756 0.6553 0.6553
vn 0.9158 0.2839 0.2839
vn -0.3756 0.7706 0.5149
vn -0.9158 0.3339 0.2231
vn 0.3756 0.7706 0.5149
vn 0.9158 0.3339 0.2231
vn -0.3756 0.8562 0.3547
vn -0.9158 0.3710 0.1537
vn 0.3756 0.8562 0.3547
vn 0.9158 0.3710 0.1537
vn -0.3756 0.9090 0.1808
vn -0.9158 0.3938 0.0783
vn 0.3756 0.9090 0.1808
vn 0.9158 0.3938 0.0783
vn -0.3756 0.9268 -0.0000
vn -0.9158 0.4016 -0.0000
vn 0.3756 0.9268 -0.0000
vn 0.9158 0.4016 -0.0000
vn -0.3756 0.9090 -0.1808
vn -0.9158 0.3938 -0.0783
vn 0.3756 0.9090 -0.1808
vn 0.9158 0.3938 -0.0783
vn -0.3756 0.8562 -0.3547
vn -0.9158 0.3710 -0.1537
vn 0.3756 0.8562 -0.3547
vn 0.9158 0.3710 -0.1537
vn -0.3756 0.7706 -0.5149
vn -0.9158 0.3339 -0.2231
vn 0.3756 0.7706 -0.5149
vn 0.9158 0.3339 -0.2231
vn -0.3756 0.6553 -0.6553
vn -0.9158 0.2839 -0.2839
vn 0.3756 0.6553 -0.6553
vn 0.9158 0.2839 -0.2839
vn -0.3756 0.5149 -0.7706
vn -0.9158 0.2231 -0.3339
vn 0.3756 0.5149 -0.7706
vn 0.9158 0.2231 -0.3339
vn -0.3756 0.3547 -0.8562
vn -0.9158 0.1537 -0.3710
vn 0.3756 0.3547 -0.8562
vn 0.9158 0.1537 -0.3710
vn -0.3756 0.1808 -0.9090
vn -0.9158 0.0783 -0.3938
vn 0.3756 0.1808 -0.9090
vn 0.9158 0.0783 -0.3938
vn 1.0000 -0.0000 -0.0000
vn 0.9159 0.3338 -0.2231
vn 0.9159 0.3710 -0.1537
vn 0.9159 -0.1537 0.3710
vn 0.9159 -0.2231 0.3339
vn 0.9159 -0.0783 -0.3938
vn 0.9159 -0.0000 -0.4015
vn 0.9159 0.2839 -0.2839
vn 0.9159 -0.0783 0.3938
vn 0.9159 -0.1537 -0.3710
vn 0.9159 0.2231 -0.3339
vn 0.9159 -0.0000 0.4015
vn 0.9159 -0.2231 -0.3339
vn 0.9159 0.1537 -0.3710
vn 0.9159 0.0783 0.3938
vn 0.9159 -0.2839 -0.2839
vn 0.9159 0.0783 -0.3938
vn 0.9159 0.1537 0.3710
vn 0.9159 -0.3339 -0.2231
vn 0.9159 0.2231 0.3339
vn 0.9159 -0.3710 -0.1537
vn 0.9159 0.2839 0.2839
vn 0.9159 -0.3938 -0.0783
vn 0.9159 0.3339 0.2231
vn 0.9159 0.3338 0.2231
vn 0.9159 -0.4015 -0.0000
vn 0.9159 0.3710 0.1537
vn 0.9159 -0.3938 0.0783
vn 0.9159 0.3938 0.0783
vn 0.9159 -0.3710 0.1537
vn 0.9159 0.4015 -0.0000
vn 0.9159 -0.3339 0.2231
vn 0.9159 0.3938 -0.0783
vn 0.9159 -0.2839 0.2839
vt 1.000000 0.525000
vt 0.968750 0.525000
vt 0.968750 0.500000
vt 0.999215 0.500000
vt 0.968750 0.975000
vt 1.000000 0.975000
vt 0.999215 1.000000
vt 0.968750 1.000000
vt 0.937500 0.525000
vt 0.937500 0.500000
vt 0.937500 0.975000
vt 0.937500 1.000000
vt 0.906250 0.525000
vt 0.906250 0.500000
vt 0.906250 0.975000
vt 0.906250 1.000000
vt 0.875000 0.525000
vt 0.875000 0.500000
vt 0.875000 0.975000
vt 0.875000 1.000000
vt 0.843750 0.525000
vt 0.843750 0.500000
vt 0.843750 0.975000
vt 0.843750 1.000000
vt 0.812500 0.525000
vt 0.812500 0.500000
vt 0.812500 0.975000
vt 0.812500 1.000000
vt 0.781250 0.525000
vt 0.781250 0.500000
vt 0.781250 0.975000
vt 0.781250 1.000000
vt 0.750000 0.525000
vt 0.750000 0.500000
vt 0.750000 0.975000
vt 0.750000 1.000000
vt 0.718750 0.525000
vt 0.718750 0.500000
vt 0.718750 0.975000
vt 0.718750 1.000000
vt 0.687500 0.525000
vt 0.687500 0.500000
vt 0.687500 0.975000
vt 0.687500 1.000000
vt 0.656250 0.525000
vt 0.656250 0.500000
vt 0.656250 0.975000
vt 0.656250 1.000000
vt 0.625000 0.525000
vt 0.625000 0.500000
vt 0.625000 0.975000
vt 0.625000 1.000000
vt 0.593750 0.525000
vt 0.593750 0.500000
vt 0.593750 0.975000
vt 0.593750 1.000000
vt 0.562500 0.525000
vt 0.562500 0.500000
vt 0.562500 0.975000
vt 0.562500 1.000000
vt 0.531250 0.525000
vt 0.531250 0.500000
vt 0.531250 0.975000
vt 0.531250 1.000000
vt 0.500000 0.525000
vt 0.500000 0.500000
vt 0.500000 0.975000
vt 0.500000 1.000000
vt 0.468750 0.525000
vt 0.468750 0.500000
vt 0.468750 0.975000
vt 0.468750 1.000000
vt 0.437500 0.525000
vt 0.437500 0.500000
vt 0.437500 0.975000
vt 0.437500 1.000000
vt 0.406250 0.525000
vt 0.406250 0.500000
vt 0.406250 0.975000
vt 0.406250 1.000000
vt 0.375000 0.525000
vt 0.375000 0.500000
vt 0.375000 0.975000
vt 0.375000 1.000000
vt 0.343750 0.525000
vt 0.343750 0.500000
vt 0.343750 0.975000
vt 0.343750 1.000000
vt 0.312500 0.525000
vt 0.312500 0.500000
vt 0.312500 0.975000
vt 0.312500 1.000000
vt 0.281250 0.525000
vt 0.281250 0.500000
vt 0.281250 0.975000
vt 0.281250 1.000000
vt 0.250000 0.525000
vt 0.250000 0.500000
vt 0.250000 0.975000
vt 0.250000 1.000000
vt 0.218750 0.525000
vt 0.218750 0.500000
vt 0.218750 0.975000
vt 0.218750 1.000000
vt 0.187500 0.525000
vt 0.187500 0.500000
vt 0.187500 0.975000
vt 0.187500 1.000000
vt 0.156250 0.525000
vt 0.156250 0.500000
vt 0.156250 0.975000
vt 0.156250 1.000000
vt 0.125000 0.525000
vt 0.125000 0.500000
vt 0.125000 0.975000
vt 0.125000 1.000000
vt 0.093750 0.525000
vt 0.093750 0.500000
vt 0.093750 0.975000
vt 0.093750 1.000000
vt 0.062500 0.525000
vt 0.062500 0.500000
vt 0.062500 0.975000
vt 0.062500 1.000000
vt 0.031250 0.525000
vt 0.031250 0.500000
vt 0.031250 0.975000
vt 0.031250 1.000000
vt 0.000000 0.525000
vt 0.000785 0.500000
vt 0.000000 0.975000
vt 0.000785 1.000000
vt 0.750000 0.477942
vt 0.794469 0.473562
vt 0.837230 0.460591
vt 0.876638 0.439527
vt 0.911179 0.411179
vt 0.939527 0.376638
vt 0.960591 0.337230
vt 0.973562 0.294469
vt 0.977942 0.250000
vt 0.973562 0.205531
vt 0.960591 0.162770
vt 0.939527 0.123362
vt 0.911179 0.088821
vt 0.876638 0.060473
vt 0.837230 0.039409
vt 0.794469 0.026438
vt 0.750000 0.022058
vt 0.705531 0.026438
vt 0.662770 0.039409
vt 0.623362 0.060473
vt 0.588821 0.088821
vt 0.560473 0.123362
vt 0.539409 0.162770
vt 0.526438 0.205531
vt 0.522058 0.250000
vt 0.526438 0.294469
vt 0.539409 0.337230
vt 0.560473 0.376638
vt 0.588821 0.411179
vt 0.623362 0.439527
vt 0.662770 0.460591
vt 0.705531 0.473562
vt 0.294469 0.473562
vt 0.250000 0.477942
vt 0.205531 0.473562
vt 0.162770 0.460591
vt 0.123362 0.439527
vt 0.088821 0.411179
vt 0.060473 0.376638
vt 0.039409 0.337230
vt 0.026438 0.294469
vt 0.022058 0.250000
vt 0.026438 0.205531
vt 0.039409 0.162770
vt 0.060473 0.123362
vt 0.088821 0.088821
vt 0.123362 0.060473
vt 0.162770 0.039409
vt 0.205531 0.026438
vt 0.250000 0.022058
vt 0.294469 0.026438
vt 0.337230 0.039409
vt 0.376638 0.060473
vt 0.411179 0.088821
vt 0.439527 0.123362
vt 0.460591 0.162770
vt 0.473562 0.205531
vt 0.477942 0.250000
vt 0.473562 0.294469
vt 0.460591 0.337230
vt 0.439527 0.376638
vt 0.411179 0.411179
vt 0.376638 0.439527
vt 0.337230 0.460591
s 1
usemtl Material.001
f 2/1/1 6/2/2 5/3/3 1/4/4
f 8/5/5 4/6/6 3/7/7 7/8/8
f 6/2/2 10/9/9 9/10/10 5/3/3
f 12/11/11 8/5/5 7/8/8 11/12/12
f 10/9/9 14/13/13 13/14/14 9/10/10
f 16/15/15 12/11/11 11/12/12 15/16/16
f 14/13/13 18/17/17 17/18/18 13/14/14
f 20/19/19 16/15/15 15/16/16 19/20/20
f 18/17/17 22/21/21 21/22/22 17/18/18
f 24/23/23 20/19/19 19/20/20 23/24/24
f 22/21/21 26/25/25 25/26/26 21/22/22
f 28/27/27 24/23/23 23/24/24 27/28/28
f 26/25/25 30/29/29 29/30/30 25/26/26
f 32/31/31 28/27/27 27/28/28 31/32/32
f 30/29/29 34/33/33 33/34/34 29/30/30
f 36/35/35 32/31/31 31/32/32 35/36/36
f 34/33/33 38/37/37 37/38/38 33/34/34
f 40/39/39 36/35/35 35/36/36 39/40/40
f 38/37/37 42/41/41 41/42/42 37/38/38
f 44/43/43 40/39/39 39/40/40 43/44/44
f 42/41/41 46/45/45 45/46/46 41/42/42
f 48/47/47 44/43/43 43/44/44 47/48/48
f 46/45/45 50/49/49 49/50/50 45/46/46
f 52/51/51 48/47/47 47/48/48 51/52/52
f 50/49/49 54/53/53 53/54/54 49/50/50
f 56/55/55 52/51/51 51/52/52 55/56/56
f 54/53/53 58/57/57 57/58/58 53/54/54
f 60/59/59 56/55/55 55/56/56 59/60/60
f 58/57/57 62/61/61 61/62/62 57/58/58
f 64/63/63 60/59/59 59/60/60 63/64/64
f 62/61/61 66/65/65 65/66/66 61/62/62
f 68/67/67 64/63/63 63/64/64 67/68/68
f 66/65/65 70/69/69 69/70/70 65/66/66
f 72/71/71 68/67/67 67/68/68 71/72/72
f 70/69/69 74/73/73 73/74/74 69/70/70
f 76/75/75 72/71/71 71/72/72 75/76/76
f 74/73/73 78/77/77 77/78/78 73/74/74
f 80/79/79 76/75/75 75/76/76 79/80/80
f 78/77/77 82/81/81 81/82/82 77/78/78
f 84/83/83 80/79/79 79/80/80 83/84/84
f 82/81/81 86/85/85 85/86/86 81/82/82
f 88/87/87 84/83/83 83/84/84 87/88/88
f 86/85/85 90/89/89 89/90/90 85/86/86
f 92/91/91 88/87/87 87/88/88 91/92/92
f 90/89/89 94/93/93 93/94/94 89/90/90
f 96/95/95 92/91/91 91/92/92 95/96/96
f 94/93/93 98/97/97 97/98/98 93/94/94
f 100/99/99 96/95/95 95/96/96 99/100/100
f 98/97/97 102/101/101 101/102/102 97/98/98
f 104/103/103 100/99/99 99/100/100 103/104/104
f 102/101/101 106/105/105 105/106/106 101/102/102
f 108/107/107 104/103/103 103/104/104 107/108/108
f 106/105/105 110/109/109 109/110/110 105/106/106
f 112/111/111 108/107/107 107/108/108 111/112/112
f 110/109/109 114/113/113 113/114/114 109/110/110
f 116/115/115 112/111/111 111/112/112 115/116/116
f 114/113/113 118/117/117 117/118/118 113/114/114
f 120/119/119 116/115/115 115/116/116 119/120/120
f 118/117/117 122/121/121 121/122/122 117/118/118
f 124/123/123 120/119/119 119/120/120 123/124/124
f 122/121/121 126/125/125 125/126/126 121/122/122
f 128/127/127 124/123/123 123/124/124 127/128/128
f 126/125/125 2/129/1 1/130/4 125/126/126
f 4/131/6 128/127/127 127/128/128 3/132/7
f 1/133/4 5/134/3 9/135/10 13/136/14 17/137/18 21/138/22 25/139/26 29/140/30 33/141/34 37/142/38 41/143/42 45/144/46 49/145/50 53/146/54 57/147/58 61/148/62 65/149/66 69/150/70 73/151/74 77/152/78 81/153/82 85/154/86 89/155/90 93/156/94 97/157/98 101/158/102 105/159/106 109/160/110 113/161/114 117/162/118 121/163/122 125/164/126
f 2/1/1 4/6/6 8/5/5 6/2/2
f 126/125/125 128/127/127 4/131/6 2/129/1
f 51/52/52 47/48/48 140/48/129 141/52/129
f 6/2/2 8/5/5 12/11/11 10/9/9
f 10/9/9 12/11/11 16/15/15 14/13/13
f 14/13/13 16/15/15 20/19/19 18/17/17
f 18/17/17 20/19/19 24/23/23 22/21/21
f 22/21/21 24/23/23 28/27/27 26/25/25
f 26/25/25 28/27/27 32/31/31 30/29/29
f 30/29/29 32/31/31 36/35/35 34/33/33
f 34/33/33 36/35/35 40/39/39 38/37/37
f 38/37/37 40/39/39 44/43/43 42/41/41
f 42/41/41 44/43/43 48/47/47 46/45/45
f 46/45/45 48/47/47 52/51/51 50/49/49
f 50/49/49 52/51/51 56/55/55 54/53/53
f 54/53/53 56/55/55 60/59/59 58/57/57
f 58/57/57 60/59/59 64/63/63 62/61/61
f 62/61/61 64/63/63 68/67/67 66/65/65
f 66/65/65 68/67/67 72/71/71 70/69/69
f 70/69/69 72/71/71 76/75/75 74/73/73
f 74/73/73 76/75/75 80/79/79 78/77/77
f 78/77/77 80/79/79 84/83/83 82/81/81
f 82/81/81 84/83/83 88/87/87 86/85/85
f 86/85/85 88/87/87 92/91/91 90/89/89
f 90/89/89 92/91/91 96/95/95 94/93/93
f 94/93/93 96/95/95 100/99/99 98/97/97
f 98/97/97 100/99/99 104/103/103 102/101/101
f 102/101/101 104/103/103 108/107/107 106/105/105
f 106/105/105 108/107/107 112/111/111 110/109/109
f 110/109/109 112/111/111 116/115/115 114/113/113
f 114/113/113 116/115/115 120/119/119 118/117/117
f 118/117/117 120/119/119 124/123/123 122/121/121
f 122/121/121 124/123/123 128/127/127 126/125/125
f 87/88/88 83/84/84 149/84/129 150/88/129
f 123/124/124 119/120/120 158/120/129 159/124/129
f 7/8/8 3/7/7 129/7/129 130/8/129
f 43/44/44 39/40/40 138/40/129 139/44/129
f 79/80/80 75/76/76 147/76/129 148/80/129
f 115/116/116 111/112/112 156/112/129 157/116/129
f 35/36/36 31/32/32 136/32/129 137/36/129
f 71/72/72 67/68/68 145/68/129 146/72/129
f 107/108/108 103/104/104 154/104/129 155/108/129
f 27/28/28 23/24/24 134/24/129 135/28/129
f 63/64/64 59/60/60 143/60/129 144/64/129
f 99/100/100 95/96/96 152/96/129 153/100/129
f 19/20/20 15/16/16 132/16/129 133/20/129
f 55/56/56 51/52/52 141/52/129 142/56/129
f 91/92/92 87/88/88 150/88/129 151/92/129
f 127/128/128 123/124/124 159/124/129 160/128/129
f 11/12/12 7/8/8 130/8/129 131/12/129
f 47/48/48 43/44/44 139/44/129 140/48/129
f 83/84/84 79/80/80 148/80/129 149/84/129
f 119/120/120 115/116/116 157/116/129 158/120/129
f 39/40/40 35/36/36 137/36/129 138/40/129
f 75/76/76 71/72/72 146/72/129 147/76/129
f 111/112/112 107/108/108 155/108/129 156/112/129
f 31/32/32 27/28/28 135/28/129 136/32/129
f 67/68/68 63/64/64 144/64/129 145/68/129
f 3/132/7 127/128/128 160/128/129 129/132/129
f 103/104/104 99/100/100 153/100/129 154/104/129
f 23/24/24 19/20/20 133/20/129 134/24/129
f 59/60/60 55/56/56 142/56/129 143/60/129
f 95/96/96 91/92/92 151/92/129 152/96/129
f 15/16/16 11/12/12 131/12/129 132/16/129
usemtl Material.002
f 153/100/129 152/96/129 184/96/129 185/100/129
f 188/112/130 187/108/131 219/108/131 220/112/130
f 140/48/129 139/44/129 171/44/129 172/48/129
f 154/104/129 153/100/129 185/100/129 186/104/129
f 141/52/129 140/48/129 172/48/129 173/52/129
f 155/108/129 154/104/129 186/104/129 187/108/129
f 142/56/129 141/52/129 173/52/129 174/56/129
f 156/112/129 155/108/129 187/108/129 188/112/129
f 143/60/129 142/56/129 174/56/129 175/60/129
f 130/8/129 129/7/129 161/7/129 162/8/129
f 157/116/129 156/112/129 188/112/129 189/116/129
f 144/64/129 143/60/129 175/60/129 176/64/129
f 131/12/129 130/8/129 162/8/129 163/12/129
f 158/120/129 157/116/129 189/116/129 190/120/129
f 145/68/129 144/64/129 176/64/129 177/68/129
f 132/16/129 131/12/129 163/12/129 164/16/129
f 159/124/129 158/120/129 190/120/129 191/124/129
f 146/72/129 145/68/129 177/68/129 178/72/129
f 133/20/129 132/16/129 164/16/129 165/20/129
f 160/128/129 159/124/129 191/124/129 192/128/129
f 147/76/129 146/72/129 178/72/129 179/76/129
f 134/24/129 133/20/129 165/20/129 166/24/129
f 129/132/129 160/128/129 192/128/129 161/132/129
f 148/80/129 147/76/129 179/76/129 180/80/129
f 135/28/129 134/24/129 166/24/129 167/28/129
f 149/84/129 148/80/129 180/80/129 181/84/129
f 136/32/129 135/28/129 167/28/129 168/32/129
f 150/88/129 149/84/129 181/84/129 182/88/129
f 137/36/129 136/32/129 168/32/129 169/36/129
f 151/92/129 150/88/129 182/88/129 183/92/129
f 138/40/129 137/36/129 169/36/129 170/40/129
f 152/96/129 151/92/129 183/92/129 184/96/129
f 139/44/129 138/40/129 170/40/129 171/44/129
f 194/165/129 193/166/129 224/167/129 223/168/129 222/169/129 221/170/129 220/171/129 219/172/129 218/173/129 217/174/129 216/175/129 215/176/129 214/177/129 213/178/129 212/179/129 211/180/129 210/181/129 209/182/129 208/183/129 207/184/129 206/185/129 205/186/129 204/187/129 203/188/129 202/189/129 201/190/129 200/191/129 199/192/129 198/193/129 197/194/129 196/195/129 195/196/129
f 175/60/132 174/56/133 206/56/133 207/60/132
f 162/8/134 161/7/135 193/7/135 194/8/134
f 189/116/136 188/112/130 220/112/130 221/116/136
f 176/64/137 175/60/132 207/60/132 208/64/137
f 163/12/138 162/8/134 194/8/134 195/12/138
f 190/120/139 189/116/136 221/116/136 222/120/139
f 177/68/140 176/64/137 208/64/137 209/68/140
f 164/16/141 163/12/138 195/12/138 196/16/141
f 191/124/142 190/120/139 222/120/139 223/124/142
f 178/72/143 177/68/140 209/68/140 210/72/143
f 165/20/144 164/16/141 196/16/141 197/20/144
f 192/128/145 191/124/142 223/124/142 224/128/145
f 179/76/146 178/72/143 210/72/143 211/76/146
f 166/24/147 165/20/144 197/20/144 198/24/147
f 161/132/135 192/128/145 224/128/145 193/132/135
f 180/80/148 179/76/146 211/76/146 212/80/148
f 167/28/149 166/24/147 198/24/147 199/28/149
f 181/84/150 180/80/148 212/80/148 213/84/150
f 168/32/151 167/28/149 199/28/149 200/32/151
f 182/88/152 181/84/150 213/84/150 214/88/153
f 169/36/154 168/32/151 200/32/151 201/36/154
f 183/92/155 182/88/152 214/88/153 215/92/155
f 170/40/156 169/36/154 201/36/154 202/40/156
f 184/96/157 183/92/155 215/92/155 216/96/157
f 171/44/158 170/40/156 202/40/156 203/44/158
f 185/100/159 184/96/157 216/96/157 217/100/159
f 172/48/160 171/44/158 203/44/158 204/48/160
f 186/104/161 185/100/159 217/100/159 218/104/161
f 173/52/162 172/48/160 204/48/160 205/52/162
f 187/108/131 186/104/161 218/104/161 219/108/131
f 174/56/133 173/52/162 205/52/162 206/56/133
