# Blender 4.5.5 LTS
# www.blender.org
mtllib bikeframe.mtl
o Cylinder.001
v -0.639970 1.036608 0.683573
v -1.140423 1.282964 2.124062
v -0.607802 1.183282 0.686919
v -1.106269 1.498700 2.090215
v -0.533559 1.258757 0.748203
v -0.915143 1.609715 2.090734
v -0.473148 1.206202 0.821277
v -0.710965 1.532412 2.125228
v -0.472060 1.065190 0.851116
v -0.647487 1.325002 2.167722
v -0.531114 0.941906 0.815249
v -0.772507 1.143671 2.186218
v -0.605840 0.929187 0.740686
v -0.991885 1.124961 2.166788
v 0.606449 1.036608 0.683573
v 1.106902 1.282964 2.124062
v 0.574281 1.183282 0.686919
v 1.072749 1.498700 2.090215
v 0.500038 1.258757 0.748203
v 0.881623 1.609716 2.090734
v 0.439628 1.206202 0.821277
v 0.677445 1.532413 2.125228
v 0.438540 1.065190 0.851116
v 0.613966 1.325003 2.167722
v 0.497593 0.941906 0.815249
v 0.738987 1.143671 2.186219
v 0.572320 0.929187 0.740686
v 0.958364 1.124961 2.166788
v -0.449975 0.865532 1.021675
v -0.449975 1.689400 1.259924
v -0.449975 0.679955 -1.150451
v -0.449975 1.753748 -1.228634
v 0.449975 0.865532 1.021675
v 0.449975 1.689400 1.259924
v 0.449975 0.679955 -1.150451
v 0.449975 1.753748 -1.228634
v -0.449975 2.210124 1.115251
v -0.449975 2.087732 -2.799371
v 0.449975 2.087732 -2.799371
v 0.449975 2.210124 1.115251
v -0.449975 2.796213 1.168805
v -0.449975 2.742016 -2.747360
v 0.449975 2.742016 -2.747360
v 0.449975 2.796213 1.168805
v 0.449975 2.711331 3.186934
v -0.449975 2.711331 3.186934
v 0.449975 3.297421 3.240484
v -0.449975 3.297421 3.240484
v -0.449975 0.785925 0.089918
v -0.449975 1.792652 0.015645
v 0.449975 0.785925 0.089918
v 0.449975 1.792652 0.015645
v -0.899950 2.148930 -0.842058
v 0.899950 2.148930 -0.842058
v -0.899950 2.782307 -1.547500
v 0.899950 2.782307 -1.547500
v -0.899950 3.494862 -1.773555
v -0.449975 3.454567 -2.153650
v 0.449975 3.454567 -2.153650
v 0.899950 3.494862 -1.773555
v 0.449975 2.803308 -1.288884
v 0.449975 3.065676 0.907779
v -0.449975 3.065676 0.907779
v -0.449975 2.803308 -1.288884
v -0.298313 0.835497 -1.925372
v -0.298313 3.004509 -1.213913
v -0.298313 1.223317 -2.260108
v -0.298313 3.392333 -1.548650
v 0.298313 0.835497 -1.925372
v 0.298313 3.004509 -1.213913
v 0.298313 1.223317 -2.260108
v 0.298313 3.392333 -1.548650
v -0.449975 2.234378 -0.666720
v -0.449975 2.706681 -1.158608
v 0.449975 2.234378 -0.666720
v 0.449975 2.706681 -1.158608
v 0.449975 2.995520 -0.771005
v -0.449975 2.995520 -0.771005
v -0.374892 3.109166 -1.462985
v -0.948405 3.222280 -1.143777
v -0.356407 3.193454 -1.459640
v -0.929920 3.306566 -1.140432
v -0.313742 3.236826 -1.398356
v -0.887256 3.349939 -1.079148
v -0.279027 3.206625 -1.325281
v -0.852540 3.319737 -1.006073
v -0.278402 3.125591 -1.295443
v -0.851915 3.238704 -0.976235
v -0.312337 3.054746 -1.331310
v -0.885851 3.167859 -1.012102
v -0.355280 3.047436 -1.405873
v -0.928793 3.160549 -1.086665
v 0.341372 3.109166 -1.462985
v 0.914885 3.222280 -1.143777
v 0.322886 3.193454 -1.459640
v 0.896399 3.306566 -1.140432
v 0.280222 3.236826 -1.398356
v 0.853735 3.349939 -1.079148
v 0.245507 3.206625 -1.325281
v 0.819020 3.319737 -1.006073
v 0.244881 3.125591 -1.295443
v 0.818395 3.238704 -0.976235
v 0.278817 3.054746 -1.331310
v 0.852330 3.167859 -1.012102
v 0.321759 3.047436 -1.405873
v 0.895272 3.160549 -1.086665
vn -0.9253 0.1397 -0.3526
vn -0.4828 0.8029 -0.3496
vn 0.4743 0.8732 -0.1124
vn 0.9732 0.2028 0.1081
vn 0.8300 -0.5139 0.2170
vn -0.1013 0.1698 0.9803
vn 0.0566 -0.9866 0.1529
vn -0.7869 -0.5983 -0.1511
vn -0.0000 -0.9858 0.1682
vn 0.9253 0.1397 -0.3526
vn 0.4828 0.8029 -0.3496
vn -0.4743 0.8732 -0.1124
vn -0.9732 0.2028 0.1081
vn -0.8300 -0.5139 0.2170
vn 0.1013 0.1698 0.9803
vn -0.0566 -0.9866 0.1529
vn 0.7869 -0.5983 -0.1511
vn -0.0000 -0.4694 -0.8830
vn -0.0000 -0.2793 0.9602
vn -0.0000 0.2070 0.9783
vn -0.0000 0.8118 0.5839
vn -0.0000 0.6303 -0.7763
vn -0.0000 0.0228 -0.9997
vn -1.0000 -0.0000 -0.0000
vn -0.0000 -0.0726 -0.9974
vn 1.0000 -0.0000 -0.0000
vn -0.0000 -0.2778 0.9606
vn -0.0000 -0.9964 0.0851
vn 0.6937 -0.7164 -0.0751
vn -0.0000 0.2677 0.9635
vn -0.0000 -0.9781 -0.2080
vn -0.0000 0.6958 0.7183
vn -0.0000 0.9720 -0.2351
vn -0.0000 0.0792 -0.9969
vn 0.9539 -0.1358 -0.2676
vn -0.0000 -0.0910 0.9959
vn -0.0000 -0.9720 0.2351
vn 0.3976 0.6741 0.6225
vn -0.0000 0.3024 0.9532
vn -0.6937 -0.7164 -0.0751
vn -0.9539 -0.1358 -0.2676
vn 0.4998 0.7271 0.4707
vn -0.0000 0.9944 -0.1054
vn -0.0000 0.6401 -0.7683
vn 0.8590 0.1279 -0.4958
vn -0.8590 0.1279 -0.4958
vn -0.0000 0.9991 -0.0418
vn -0.0000 0.9967 -0.0809
vn 0.8286 0.4496 0.3335
vn -0.0000 0.3117 -0.9502
vn -0.0000 -0.3117 0.9502
vn -0.0000 -0.6534 -0.7570
vn -0.0000 0.6534 0.7570
vn -0.7926 0.4777 0.3790
vn -0.7923 0.4738 0.3844
vn -0.7922 0.4733 0.3851
vn -0.0000 0.9375 -0.3480
vn -0.4998 0.7271 0.4707
vn -0.3976 0.6741 0.6225
vn 0.7926 0.4777 0.3790
vn 0.7922 0.4733 0.3851
vn 0.7923 0.4738 0.3844
vn -0.8286 0.4496 0.3335
vn -0.4612 0.1360 -0.8768
vn -0.1202 0.8479 -0.5164
vn 0.3113 0.9213 0.2329
vn 0.5084 0.3010 0.8068
vn 0.3226 -0.5460 0.7732
vn -0.8611 0.1698 0.4793
vn -0.1061 -0.9818 0.1573
vn -0.4549 -0.6783 -0.5770
vn -0.0000 -0.9952 0.0976
vn 0.4612 0.1360 -0.8768
vn 0.1202 0.8479 -0.5164
vn -0.3113 0.9213 0.2329
vn -0.5084 0.3010 0.8068
vn -0.3227 -0.5460 0.7732
vn 0.8611 0.1698 0.4793
vn 0.1061 -0.9818 0.1573
vn 0.4549 -0.6783 -0.5770
vn -0.0000 -0.6791 -0.7340
vn -0.0000 -0.4517 0.8922
vn -0.0000 0.3455 0.9384
vn -0.0000 0.9242 0.3820
vn -0.0000 0.8163 -0.5777
vn -0.0000 0.0397 -0.9992
vt 1.000000 0.500000
vt 1.000000 1.000000
vt 0.857143 1.000000
vt 0.857143 0.500000
vt 0.714286 1.000000
vt 0.714286 0.500000
vt 0.571429 1.000000
vt 0.571429 0.500000
vt 0.428571 1.000000
vt 0.428571 0.500000
vt 0.285714 1.000000
vt 0.285714 0.500000
vt 0.437640 0.399638
vt 0.250000 0.490000
vt 0.062360 0.399638
vt 0.016017 0.196595
vt 0.145868 0.033767
vt 0.354132 0.033767
vt 0.483983 0.196595
vt 0.142857 1.000000
vt 0.142857 0.500000
vt 0.000000 1.000000
vt 0.000000 0.500000
vt 0.375000 0.125000
vt 0.625000 0.125000
vt 0.625000 0.250000
vt 0.375000 0.250000
vt 0.625000 0.500000
vt 0.375000 0.500000
vt 0.375000 0.641349
vt 0.625000 0.641349
vt 0.625000 0.750000
vt 0.375000 0.722967
vt 0.625000 1.000000
vt 0.374138 1.000000
vt 0.125000 0.641349
vt 0.125000 0.722967
vt 0.625000 0.625000
vt 0.625000 0.108651
vt 0.625000 0.000000
vt 0.625000 0.108651
vt 0.875000 0.750000
vt 0.625000 0.641349
vt 0.875000 0.625000
vt 0.125000 0.500000
vt 0.375000 0.625000
vt 0.125000 0.625000
vt 0.875000 0.500000
vt 0.875000 0.641349
vt 0.375000 0.000000
vt 0.375000 0.750000
vt 0.375000 1.000000
vt 0.125000 0.750000
vt 0.375000 0.027033
vt 0.375000 0.108651
s 0
f 1/1/1 2/2/1 4/3/1 3/4/1
f 3/4/2 4/3/2 6/5/2 5/6/2
f 5/6/3 6/5/3 8/7/3 7/8/3
f 7/8/4 8/7/4 10/9/4 9/10/4
f 9/10/5 10/9/5 12/11/5 11/12/5
f 4/13/6 2/14/6 14/15/6 12/16/6 10/17/6 8/18/6 6/19/6
f 11/12/7 12/11/7 14/20/7 13/21/7
f 13/21/8 14/20/8 2/22/8 1/23/8
f 27/21/9 25/12/9 11/12/9 13/21/9
f 15/1/10 17/4/10 18/3/10 16/2/10
f 17/4/11 19/6/11 20/5/11 18/3/11
f 19/6/12 21/8/12 22/7/12 20/5/12
f 21/8/13 23/10/13 24/9/13 22/7/13
f 23/10/14 25/12/14 26/11/14 24/9/14
f 18/13/15 20/19/15 22/18/15 24/17/15 26/16/15 28/15/15 16/14/15
f 25/12/16 27/21/16 28/20/16 26/11/16
f 27/21/17 15/23/17 16/22/17 28/20/17
f 15/23/18 27/21/18 13/21/18 1/23/18
f 25/12/19 23/10/19 9/10/19 11/12/19
f 23/10/20 21/8/20 7/8/20 9/10/20
f 21/8/21 19/6/21 5/6/21 7/8/21
f 19/6/22 17/4/22 3/4/22 5/6/22
f 17/4/23 15/1/23 1/1/23 3/4/23
f 49/24/24 50/25/24 32/26/24 31/27/24
f 31/27/25 32/26/25 36/28/25 35/29/25
f 51/30/26 52/31/26 34/32/26 33/33/26
f 33/33/27 34/32/27 30/34/27 29/35/27
f 49/36/28 51/30/28 33/33/28 29/37/28
f 52/38/29 36/28/29 39/28/29 54/38/29
f 73/39/24 37/40/24 41/40/24 74/41/24
f 50/41/24 30/40/24 37/40/24 73/39/24
f 30/34/30 34/32/30 40/32/30 37/34/30
f 36/28/31 32/26/31 38/26/31 39/28/31
f 41/42/32 44/32/32 62/32/32 63/42/32
f 44/32/33 41/42/33 48/42/33 47/32/33
f 39/28/34 38/26/34 42/26/34 43/28/34
f 54/38/35 39/28/35 43/28/35 56/38/35
f 46/34/36 45/32/36 47/32/36 48/34/36
f 37/34/37 40/32/37 45/32/37 46/34/37
f 40/32/26 44/32/26 47/32/26 45/32/26
f 41/40/24 37/40/24 46/40/24 48/40/24
f 75/43/38 54/38/38 56/38/38 76/43/38
f 55/44/39 56/38/39 60/38/39 57/44/39
f 32/26/40 50/25/40 53/25/40 38/26/40
f 38/26/41 53/25/41 55/25/41 42/26/41
f 52/38/42 54/38/42 75/43/42
f 31/45/28 35/29/28 51/46/28 49/47/28
f 35/29/26 36/28/26 52/38/26 51/46/26
f 59/28/43 58/48/43 57/44/43 60/38/43
f 43/28/44 42/26/44 58/26/44 59/28/44
f 56/38/45 43/28/45 59/28/45 60/38/45
f 42/26/46 55/25/46 57/25/46 58/26/46
f 77/31/47 78/49/47 63/42/47 62/32/47
f 56/38/48 55/44/48 64/44/48 61/38/48
f 76/43/49 61/38/49 77/31/49
f 74/41/24 41/40/24 63/40/24 78/41/24
f 65/50/24 66/40/24 68/26/24 67/27/24
f 67/27/50 68/26/50 72/28/50 71/29/50
f 71/29/26 72/28/26 70/32/26 69/51/26
f 69/51/51 70/32/51 66/34/51 65/52/51
f 67/45/52 71/29/52 69/51/52 65/53/52
f 72/28/53 68/48/53 66/42/53 70/32/53
f 74/41/54 64/25/55 55/25/56
f 44/32/26 76/43/26 77/31/26 62/32/26
f 61/38/57 64/44/57 78/49/57 77/31/57
f 29/54/24 30/40/24 50/41/24 49/55/24
f 34/32/26 52/31/26 75/43/26 40/32/26
f 40/32/26 75/43/26 76/43/26 44/32/26
f 50/41/58 73/39/58 53/25/58
f 53/25/59 73/39/59 74/41/59 55/25/59
f 76/43/60 56/38/61 61/38/62
f 74/41/63 78/41/63 64/25/63
f 79/1/64 80/2/64 82/3/64 81/4/64
f 81/4/65 82/3/65 84/5/65 83/6/65
f 83/6/66 84/5/66 86/7/66 85/8/66
f 85/8/67 86/7/67 88/9/67 87/10/67
f 87/10/68 88/9/68 90/11/68 89/12/68
f 82/13/69 80/14/69 92/15/69 90/16/69 88/17/69 86/18/69 84/19/69
f 89/12/70 90/11/70 92/20/70 91/21/70
f 91/21/71 92/20/71 80/22/71 79/23/71
f 105/21/72 103/12/72 89/12/72 91/21/72
f 93/1/73 95/4/73 96/3/73 94/2/73
f 95/4/74 97/6/74 98/5/74 96/3/74
f 97/6/75 99/8/75 100/7/75 98/5/75
f 99/8/76 101/10/76 102/9/76 100/7/76
f 101/10/77 103/12/77 104/11/77 102/9/77
f 96/13/78 98/19/78 100/18/78 102/17/78 104/16/78 106/15/78 94/14/78
f 103/12/79 105/21/79 106/20/79 104/11/79
f 105/21/80 93/23/80 94/22/80 106/20/80
f 93/23/81 105/21/81 91/21/81 79/23/81
f 103/12/82 101/10/82 87/10/82 89/12/82
f 101/10/83 99/8/83 85/8/83 87/10/83
f 99/8/84 97/6/84 83/6/84 85/8/84
f 97/6/85 95/4/85 81/4/85 83/6/85
f 95/4/86 93/1/86 79/1/86 81/4/86
