# Blender 4.5.5 LTS
# www.blender.org
mtllib bikeframe.mtl
o Cylinder.001
v -0.639970 1.036608 0.683573
v -1.140423 1.282964 2.124062
v -0.607802 1.183282 0.686919
v -1.106269 1.498700 2.090215
v -0.533559 1.258757 0.748203
v -0.915143 1.609715 2.090734
v -0.473148 1.206202 0.821277
v -0.710965 1.532412 2.125228
v -0.472060 1.065190 0.851116
v -0.647487 1.325002 2.167722
v -0.531114 0.941906 0.815249
v -0.772507 1.143671 2.186218
v -0.605840 0.929187 0.740686
v -0.991885 1.124961 2.166788
v 0.606449 1.036608 0.683573
v 1.106902 1.282964 2.124062
v 0.574281 1.183282 0.686919
v 1.072749 1.498700 2.090215
v 0.500038 1.258757 0.748203
v 0.881623 1.609716 2.090734
v 0.439628 1.206202 0.821277
v 0.677445 1.532413 2.125228
v 0.438540 1.065190 0.851116
v 0.613966 1.325003 2.167722
v 0.497593 0.941906 0.815249
v 0.738987 1.143671 2.186219
v 0.572320 0.929187 0.740686
v 0.958364 1.124961 2.166788
v -0.449975 0.865532 1.021675
v -0.449975 1.689400 1.259924
v -0.449975 0.679955 -1.150451
v -0.449975 1.753748 -1.228634
v 0.449975 0.865532 1.021675
v 0.449975 1.689400 1.259924
v 0.449975 0.679955 -1.150451
v 0.449975 1.753748 -1.228634
v -0.449975 2.210124 1.115251
v -0.449975 2.087732 -2.799371
v 0.449975 2.087732 -2.799371
v 0.449975 2.210124 1.115251
v -0.449975 2.808280 0.540548
v -0.449975 2.742016 -2.747360
v 0.449975 2.742016 -2.747360
v 0.449975 2.808280 0.540548
v 0.449975 2.711331 3.186934
v -0.449975 2.711331 3.186934
v -0.449975 0.785925 0.089918
v -0.449975 1.792652 0.015645
v 0.449975 0.785925 0.089918
v 0.449975 1.792652 0.015645
v -0.899950 2.148930 -0.842058
v 0.899950 2.148930 -0.842058
v -0.899950 2.782307 -1.547500
v 0.899950 2.782307 -1.547500
v -0.899950 3.494862 -1.773555
v -0.449975 3.454567 -2.153650
v 0.449975 3.454567 -2.153650
v 0.899950 3.494862 -1.773555
v 0.449975 2.803308 -1.288884
v 0.449975 3.112254 0.173185
v -0.449975 3.112254 0.173185
v -0.449975 2.803308 -1.288884
v -0.298313 0.835497 -1.925372
v -0.298313 3.004509 -1.213913
v -0.298313 1.223317 -2.260108
v -0.298313 3.392333 -1.548650
v 0.298313 0.835497 -1.925372
v 0.298313 3.004509 -1.213913
v 0.298313 1.223317 -2.260108
v 0.298313 3.392333 -1.548650
v -0.449975 2.234378 -0.666720
v -0.449975 2.706681 -1.158608
v 0.449975 2.234378 -0.666720
v 0.449975 2.706681 -1.158608
v 0.449975 2.995520 -0.771005
v -0.449975 2.995520 -0.771005
v -0.358132 3.109166 -1.462985
v -0.931645 3.222280 -1.143777
v -0.339647 3.193454 -1.459640
v -0.913160 3.306566 -1.140432
v -0.296982 3.236826 -1.398356
v -0.870496 3.349939 -1.079148
v -0.262267 3.206625 -1.325281
v -0.835780 3.319737 -1.006073
v -0.261642 3.125591 -1.295443
v -0.835155 3.238704 -0.976235
v -0.295577 3.054746 -1.331310
v -0.869091 3.167859 -1.012102
v -0.338520 3.047436 -1.405873
v -0.912033 3.160549 -1.086665
v 0.358132 3.109166 -1.462985
v 0.931645 3.222280 -1.143777
v 0.339646 3.193454 -1.459640
v 0.913159 3.306566 -1.140432
v 0.296982 3.236826 -1.398356
v 0.870495 3.349939 -1.079148
v 0.262267 3.206625 -1.325281
v 0.835780 3.319737 -1.006073
v 0.261641 3.125591 -1.295443
v 0.835155 3.238704 -0.976235
v 0.295577 3.054746 -1.331310
v 0.869090 3.167859 -1.012102
v 0.338519 3.047436 -1.405873
v 0.912032 3.160549 -1.086665
v 0.449975 2.768733 1.861026
v -0.449975 2.460728 2.151092
v 0.449975 2.460728 2.151092
v 0.449975 3.054305 3.240484
v -0.449975 2.768733 1.861026
v -0.449975 3.054305 3.240484
v 0.449975 3.083881 1.912418
v -0.449975 3.083881 1.912418
vn -0.5777 -0.2836 -0.7654
vn -0.9320 -0.2333 -0.2775
vn -0.7811 0.4932 -0.3828
vn -0.4798 0.3997 -0.7811
vn -0.0571 0.9588 -0.2783
vn -0.0790 0.9223 -0.3782
vn 0.7859 0.6183 -0.0096
vn 0.4513 0.7456 0.4902
vn 0.9710 -0.1634 0.1743
vn 0.6039 -0.1740 0.7779
vn 0.4791 -0.8532 0.2060
vn 0.1972 -0.9148 0.3526
vn -0.1013 0.1698 0.9803
vn -0.4568 -0.8895 -0.0129
vn -0.3186 -0.8714 -0.3730
vn 0.3186 -0.8714 -0.3730
vn -0.1972 -0.9148 0.3526
vn 0.5777 -0.2836 -0.7654
vn 0.4798 0.3997 -0.7811
vn 0.7811 0.4932 -0.3828
vn 0.9320 -0.2333 -0.2775
vn 0.0790 0.9223 -0.3782
vn 0.0571 0.9588 -0.2783
vn -0.4513 0.7456 0.4902
vn -0.7859 0.6183 -0.0096
vn -0.6039 -0.1740 0.7779
vn -0.9710 -0.1634 0.1743
vn -0.4791 -0.8532 0.2060
vn 0.1013 0.1698 0.9803
vn 0.4568 -0.8895 -0.0129
vn -1.0000 -0.0000 -0.0000
vn -0.0000 -0.0726 -0.9974
vn 1.0000 -0.0000 -0.0000
vn -0.0000 -0.2778 0.9606
vn -0.0000 -0.9964 0.0851
vn 0.6937 -0.7164 -0.0751
vn -0.0000 0.2677 0.9635
vn -0.0000 -0.9781 -0.2080
vn -0.0000 0.7704 0.6375
vn -0.0000 0.0792 -0.9969
vn 0.9539 -0.1358 -0.2676
vn -0.0000 -0.1543 0.9880
vn -0.0000 -0.9720 0.2351
vn 0.3976 0.6741 0.6225
vn -0.0000 0.3024 0.9532
vn -0.6937 -0.7164 -0.0751
vn -0.9539 -0.1358 -0.2676
vn 0.4996 0.7272 0.4707
vn -0.0000 0.9944 -0.1054
vn -0.0000 0.6401 -0.7683
vn 0.8590 0.1279 -0.4958
vn -0.8590 0.1279 -0.4958
vn -0.0000 0.9924 -0.1227
vn -0.0000 0.9967 -0.0809
vn 0.8286 0.4496 0.3335
vn -0.0000 0.3117 -0.9502
vn -0.0000 -0.3117 0.9502
vn -0.0000 -0.6534 -0.7570
vn -0.0000 0.6534 0.7570
vn -0.7926 0.4777 0.3790
vn -0.7923 0.4738 0.3844
vn -0.7922 0.4733 0.3851
vn -0.0000 0.9375 -0.3480
vn -0.4996 0.7272 0.4707
vn -0.3976 0.6741 0.6225
vn 0.7926 0.4776 0.3790
vn 0.7922 0.4733 0.3851
vn 0.7923 0.4738 0.3843
vn -0.8286 0.4495 0.3337
vn -0.8286 0.4496 0.3335
vn -0.2803 -0.3329 -0.9003
vn -0.5084 -0.3010 -0.8068
vn -0.3227 0.5460 -0.7732
vn -0.1727 0.4683 -0.8665
vn 0.1061 0.9818 -0.1573
vn 0.0528 0.9757 -0.2125
vn 0.4549 0.6783 0.5770
vn 0.2177 0.7260 0.6523
vn 0.4612 -0.1360 0.8768
vn 0.2206 -0.1236 0.9675
vn 0.1202 -0.8479 0.5164
vn 0.0597 -0.8782 0.4746
vn -0.8611 0.1698 0.4793
vn -0.3113 -0.9213 -0.2329
vn -0.1663 -0.9202 -0.3544
vn 0.1663 -0.9202 -0.3544
vn -0.0597 -0.8782 0.4746
vn 0.2803 -0.3329 -0.9003
vn 0.1727 0.4683 -0.8665
vn 0.3227 0.5460 -0.7732
vn 0.5084 -0.3010 -0.8068
vn -0.0528 0.9757 -0.2125
vn -0.1061 0.9818 -0.1573
vn -0.2177 0.7260 0.6523
vn -0.4549 0.6783 0.5770
vn -0.2206 -0.1236 0.9675
vn -0.4612 -0.1360 0.8768
vn -0.1202 -0.8479 0.5164
vn 0.8611 0.1698 0.4793
vn 0.3113 -0.9213 -0.2329
vn -0.0000 0.9996 0.0299
vn -0.0000 0.1609 -0.9870
vn -0.0000 0.9796 -0.2009
vt 1.000000 0.500000
vt 1.000000 1.000000
vt 0.857143 1.000000
vt 0.857143 0.500000
vt 0.714286 1.000000
vt 0.714286 0.500000
vt 0.571429 1.000000
vt 0.571429 0.500000
vt 0.428571 1.000000
vt 0.428571 0.500000
vt 0.285714 1.000000
vt 0.285714 0.500000
vt 0.437640 0.399638
vt 0.250000 0.490000
vt 0.062360 0.399638
vt 0.016017 0.196595
vt 0.145868 0.033767
vt 0.354132 0.033767
vt 0.483983 0.196595
vt 0.142857 1.000000
vt 0.142857 0.500000
vt 0.000000 1.000000
vt 0.000000 0.500000
vt 0.375000 0.125000
vt 0.625000 0.125000
vt 0.625000 0.250000
vt 0.375000 0.250000
vt 0.625000 0.500000
vt 0.375000 0.500000
vt 0.375000 0.641349
vt 0.625000 0.641349
vt 0.625000 0.750000
vt 0.375000 0.722967
vt 0.625000 1.000000
vt 0.374138 1.000000
vt 0.125000 0.641349
vt 0.125000 0.722967
vt 0.625000 0.625000
vt 0.625000 0.108651
vt 0.625000 0.000000
vt 0.875000 0.750000
vt 0.875000 0.625000
vt 0.125000 0.500000
vt 0.375000 0.625000
vt 0.125000 0.625000
vt 0.875000 0.500000
vt 0.875000 0.641349
vt 0.375000 0.000000
vt 0.375000 0.750000
vt 0.375000 1.000000
vt 0.125000 0.750000
vt 0.375000 0.027033
vt 0.375000 0.108651
s 1
f 1/1/1 2/2/2 4/3/3 3/4/4
f 3/4/4 4/3/3 6/5/5 5/6/6
f 5/6/6 6/5/5 8/7/7 7/8/8
f 7/8/8 8/7/7 10/9/9 9/10/10
f 9/10/10 10/9/9 12/11/11 11/12/12
f 4/13/13 2/14/13 14/15/13 12/16/13 10/17/13 8/18/13 6/19/13
f 11/12/12 12/11/11 14/20/14 13/21/15
f 13/21/15 14/20/14 2/22/2 1/23/1
f 27/21/16 25/12/17 11/12/12 13/21/15
f 15/1/18 17/4/19 18/3/20 16/2/21
f 17/4/19 19/6/22 20/5/23 18/3/20
f 19/6/22 21/8/24 22/7/25 20/5/23
f 21/8/24 23/10/26 24/9/27 22/7/25
f 23/10/26 25/12/17 26/11/28 24/9/27
f 18/13/29 20/19/29 22/18/29 24/17/29 26/16/29 28/15/29 16/14/29
f 25/12/17 27/21/16 28/20/30 26/11/28
f 27/21/16 15/23/18 16/22/21 28/20/30
f 15/23/18 27/21/16 13/21/15 1/23/1
f 25/12/17 23/10/26 9/10/10 11/12/12
f 23/10/26 21/8/24 7/8/8 9/10/10
f 21/8/24 19/6/22 5/6/6 7/8/8
f 19/6/22 17/4/19 3/4/4 5/6/6
f 17/4/19 15/1/18 1/1/1 3/4/4
f 47/24/31 48/25/31 32/26/31 31/27/31
f 31/27/32 32/26/32 36/28/32 35/29/32
f 49/30/33 50/31/33 34/32/33 33/33/33
f 33/33/34 34/32/34 30/34/34 29/35/34
f 47/36/35 49/30/35 33/33/35 29/37/35
f 50/38/36 36/28/36 39/28/36 52/38/36
f 71/39/31 37/40/31 41/40/31 72/39/31
f 48/39/31 30/40/31 37/40/31 71/39/31
f 30/34/37 34/32/37 40/32/37 37/34/37
f 36/28/38 32/26/38 38/26/38 39/28/38
f 41/41/39 44/32/39 60/32/39 61/41/39
f 39/28/40 38/26/40 42/26/40 43/28/40
f 52/38/41 39/28/41 43/28/41 54/38/41
f 46/34/42 45/32/42 108/32/42 110/34/42
f 106/34/43 107/32/43 45/32/43 46/34/43
f 107/32/33 105/32/33 108/32/33 45/32/33
f 109/40/31 106/40/31 46/40/31 110/40/31
f 73/31/44 52/38/44 54/38/44 74/31/44
f 53/42/45 54/38/45 58/38/45 55/42/45
f 32/26/46 48/25/46 51/25/46 38/26/46
f 38/26/47 51/25/47 53/25/47 42/26/47
f 50/38/48 52/38/48 73/31/48
f 31/43/35 35/29/35 49/44/35 47/45/35
f 35/29/33 36/28/33 50/38/33 49/44/33
f 57/28/49 56/46/49 55/42/49 58/38/49
f 43/28/50 42/26/50 56/26/50 57/28/50
f 54/38/51 43/28/51 57/28/51 58/38/51
f 42/26/52 53/25/52 55/25/52 56/26/52
f 75/31/53 76/47/53 61/41/53 60/32/53
f 54/38/54 53/42/54 62/42/54 59/38/54
f 74/31/55 59/38/55 75/31/55
f 72/39/31 41/40/31 61/40/31 76/39/31
f 63/48/31 64/40/31 66/26/31 65/27/31
f 65/27/56 66/26/56 70/28/56 69/29/56
f 69/29/33 70/28/33 68/32/33 67/49/33
f 67/49/57 68/32/57 64/34/57 63/50/57
f 65/43/58 69/29/58 67/49/58 63/51/58
f 70/28/59 66/46/59 64/41/59 68/32/59
f 72/39/60 62/25/61 53/25/62
f 44/32/33 74/31/33 75/31/33 60/32/33
f 59/38/63 62/42/63 76/47/63 75/31/63
f 29/52/31 30/40/31 48/39/31 47/53/31
f 34/32/33 50/31/33 73/31/33 40/32/33
f 40/32/33 73/31/33 74/31/33 44/32/33
f 48/39/64 71/39/64 51/25/64
f 51/25/65 71/39/65 72/39/65 53/25/65
f 74/31/66 54/38/67 59/38/68
f 72/39/69 76/39/70 62/25/70
f 77/1/71 78/2/72 80/3/73 79/4/74
f 79/4/74 80/3/73 82/5/75 81/6/76
f 81/6/76 82/5/75 84/7/77 83/8/78
f 83/8/78 84/7/77 86/9/79 85/10/80
f 85/10/80 86/9/79 88/11/81 87/12/82
f 80/13/83 78/14/83 90/15/83 88/16/83 86/17/83 84/18/83 82/19/83
f 87/12/82 88/11/81 90/20/84 89/21/85
f 89/21/85 90/20/84 78/22/72 77/23/71
f 103/21/86 101/12/87 87/12/82 89/21/85
f 91/1/88 93/4/89 94/3/90 92/2/91
f 93/4/89 95/6/92 96/5/93 94/3/90
f 95/6/92 97/8/94 98/7/95 96/5/93
f 97/8/94 99/10/96 100/9/97 98/7/95
f 99/10/96 101/12/87 102/11/98 100/9/97
f 94/13/99 96/19/99 98/18/99 100/17/99 102/16/99 104/15/99 92/14/99
f 101/12/87 103/21/86 104/20/100 102/11/98
f 103/21/86 91/23/88 92/22/91 104/20/100
f 91/23/88 103/21/86 89/21/85 77/23/71
f 101/12/87 99/10/96 85/10/80 87/12/82
f 99/10/96 97/8/94 83/8/78 85/10/80
f 97/8/94 95/6/92 81/6/76 83/8/78
f 95/6/92 93/4/89 79/4/74 81/6/76
f 93/4/89 91/1/88 77/1/71 79/4/74
f 41/40/31 37/40/31 106/40/31 109/40/31
f 40/32/33 44/32/33 105/32/33 107/32/33
f 37/34/43 40/32/43 107/32/43 106/34/43
f 44/32/101 41/41/101 109/41/101 105/32/101
f 105/32/102 109/41/102 112/41/102 111/32/102
f 111/32/103 112/41/103 110/41/103 108/32/103
f 109/40/31 110/40/31 112/40/31
f 108/32/33 105/32/33 111/32/33
